<?xml version="1.0" standalone="no"?><!DOCTYPE svg PUBLIC "-//W3C//DTD SVG 1.1//EN" "http://www.w3.org/Graphics/SVG/1.1/DTD/svg11.dtd"><svg t="1784135033697" class="icon" viewBox="0 0 1024 1024" version="1.1" xmlns="http://www.w3.org/2000/svg" p-id="2446" xmlns:xlink="http://www.w3.org/1999/xlink" width="200" height="200"><path d="M985.48736 696.4224c-0.426667-12.245333 9.506133-20.590933 14.353067-31.761067 4.625067-10.6496 10.453333-31.488 11.2384-42.8544 0.853333-12.270933-11.3408-32.546133 4.608-36.693333 13.448533 4.181333 7.313067 55.552 4.113066 67.703467-4.0448 15.342933-12.842667 29.115733-21.4272 42.180266l-12.885333 1.416534z" fill="#523028" p-id="2447"></path><path d="M187.168427 909.5168c17.237333-48.8192 35.4304-97.416533 52.676266-146.107733 1.2032-3.387733 1.92-6.0928 1.399467-9.736534-3.5328 0.170667-6.971733 0.2048-10.4704-0.657066-36.1216-8.8832-95.9488-35.848533-120.004267-64.4864-42.0352-50.056533-28.2112-131.882667 3.7376-184.029867 18.9952-31.010133 54.186667-55.7056 91.741867-52.9664 0.162133-14.020267 3.694933-28.4672 7.125333-42.171733 5.5552-22.135467 22.152533-55.099733 24.618667-73.975467 2.7648-21.128533-1.28-47.6672 0.119467-69.853867 2.0736-32.8448 10.4704-85.768533 23.748266-116.1984 23.645867-54.1952 57.105067-46.336 101.333334-21.7344 23.3216 12.9792 43.835733 30.190933 64.469333 46.958934 54.826667-12.6464 113.5104-13.1584 168.2688 0.384l4.770133-1.5872c26.222933-22.161067 80.8192-66.978133 116.061867-65.527467 29.960533 1.2288 47.0272 37.905067 54.826667 63.010133 11.972267 38.519467 18.5344 102.4512 16.827733 142.4896-0.247467 5.794133-3.805867 10.308267-3.447467 15.624534 0.802133 11.9296 19.976533 51.0464 24.797867 67.703466 5.0176 17.322667 10.24 37.111467 10.308267 54.894934 12.910933-1.553067 22.357333 1.041067 34.030933 5.717333 61.294933 24.567467 88.7808 109.602133 83.7888 170.9312-5.1968 63.735467-66.8928 98.030933-120.874667 117.666133-5.922133 2.1504-35.0208 7.381333-34.9952 12.5696 8.977067 22.510933 19.541333 44.740267 27.8272 67.498667 7.6288 20.949333 21.418667 55.765333 25.506134 76.2624 0.913067 4.590933 0.733867 9.105067 0.622933 13.704533-3.165867 0.068267-6.3744-0.085333-9.5488 0L769.150293 760.064l-57.224533 9.531733c-0.3584 3.566933 0.110933 6.946133 0.6656 10.478934 5.8112 37.316267 17.450667 74.197333 21.76 111.8208 0.759467 6.656 1.979733 17.681067-0.145067 24.004266h-12.7232c-5.512533-21.128533-5.947733-43.5968-9.6512-65.092266-6.843733-39.688533-17.450667-78.958933-28.484266-117.623467l15.7952-4.881067 6.587733 25.233067c3.712 3.805867 65.92-11.1872 76.270933-14.08 36.7872-10.2656 93.0048-30.557867 117.649067-60.458667 42.88-52.0448 20.8896-141.533867-22.3232-186.120533-1.339733-1.3824-2.030933-4.266667-4.608-6.4256-22.152533-18.551467-71.3472-32.674133-85.9904 0.110933-11.5456 25.856 3.694933 46.3104 29.2608 53.333334 9.147733 2.5088 23.68 3.3536 32.708267 0.682666 13.960533 1.194667 10.811733 10.8032 0.861866 15.3088-2.056533 0.930133-5.563733-0.0256-6.843733 0.964267-4.4544 3.438933-4.4288 35.285333-3.5072 42.513067 1.339733 10.530133 10.026667 19.413333 9.480533 30.267733-11.793067 1.339733-21.0176-7.722667-31.803733-12.714667-5.8624-2.7136-4.872533-2.653867-12.7232-3.182933-4.0192-0.273067-8.704-0.273067-12.7232 0-3.5584 0.238933-7.236267-0.605867-10.794667 0.349867-2.756267 0.477867-1.757867 2.7904-1.928533 2.833066-1.834667 0.503467-4.795733-0.571733-6.357333 0-8.3456-3.6352 0.8448-14.327467 5.1712-15.505066 7.773867-2.116267 23.671467-0.2304 32.989866-0.401067 4.232533-0.0768 8.507733 0.059733 12.731734 0l3.140266-39.6032-19.003733-8.132267c-2.542933 13.653333-11.357867 24.302933-19.1232 35.003734l-9.608533-1.467734-3.114667-4.8896c0.546133-0.836267 0.1024-4.164267 1.425067-6.391466 5.4016-9.096533 11.153067-16.452267 13.9008-27.0848-1.2032-4.138667-7.2192-5.879467-8.96-7.867734-2.056533-2.3552-4.7616-6.664533-6.357334-9.540266-14.3872-25.915733-9.617067-43.204267 6.357334-66.7904l22.075733-9.736534c4.2496-4.1984-10.990933-57.122133-14.045867-66.670933-5.0176-15.684267-18.8672-41.378133-20.693333-55.637333-5.461333-42.632533 2.346667-83.054933-7.150933-129.6128-4.608-22.587733-19.618133-79.069867-48.571734-78.8992-17.066667 0.093867-56.5504 26.2656-71.415466 36.957866-8.8576 6.3744-29.678933 27.409067-37.162667 29.610667-10.171733 2.9952-29.789867-4.471467-40.968533-5.8368-34.986667-4.283733-72.9856-4.590933-108.0064 0-11.3664 1.493333-29.397333 10.1376-39.9104 4.778667-3.6352-1.860267-9.890133-10.9312-14.173867-14.455467-17.792-14.6176-44.424533-33.518933-65.194667-42.939733-32.264533-14.6432-45.6192-7.466667-58.9568 23.876266-16.256 38.186667-26.274133 116.2752-23.748266 157.422934 0.298667 4.855467 3.848533 8.456533 3.140266 15.837866-1.706667 18.005333-18.261333 51.549867-23.9616 71.594667-2.884267 10.1376-12.868267 44.7744-10.683733 52.206933l18.722133 14.6688c6.280533 14.907733 14.8736 25.3696 12.663467 42.897067-2.013867 15.957333-11.042133 21.930667-19.0208 33.4336-0.247467 0.349867-2.679467 0.128-2.568533 1.416533 22.749867 64.853333 91.485867 103.6032 154.4192 121.856 16.938667 4.9152 40.968533 11.204267 58.069333 13.4912-3.797333 4.795733-2.7648 7.688533 0.008533 12.714667h-6.3744c-10.205867-1.408-21.956267-0.6912-32.6656-3.908267l-69.111466-21.521066c15.633067 18.577067 49.527467 38.272 73.147733 44.5184l-6.357333 4.770133 9.540266 7.953067c-8.388267-0.802133-24.277333-3.328-31.803733-6.357334-15.889067-6.408533-46.148267-29.5168-57.309867-42.88-6.306133-7.552-9.463467-16.913067-17.3824-23.9616-27.229867-24.251733-79.906133-49.288533-114.116266-28.1344-4.087467 2.525867-9.0624 10.2912-13.149867 9.105067-11.357867-3.319467 3.677867-25.403733 4.701867-33.442133 1.032533-8.064 1.211733-27.093333 0.145066-35.029334-1.4336-10.709333-13.815467-6.058667-15.7952-12.8256-1.4848-5.085867-2.542933-13.0816 6.161067-10.9312 13.952 2.781867 35.7888 0.392533 47.624533-8.029866 34.542933-24.584533 11.076267-70.903467-33.262933-65.066667-15.7184 2.0736-28.791467 12.6208-39.808 22.212267-47.496533 41.335467-68.061867 138.606933-25.4976 189.294933 28.381867 33.809067 102.784 58.7008 145.501867 67.592533 8.797867 1.826133 41.002667 8.541867 46.7712 6.8864 8.3712-2.4064 4.462933-42.333867 23.918933-23.483733l-28.373333 123.989333-6.468267 58.734934c-5.282133 0.042667-10.624-0.0768-15.906133 0-2.193067-11.050667 1.834667-20.667733 3.1232-30.267734 3.652267-27.144533 7.543467-54.929067 13.508266-81.902933 2.2784-10.299733 5.290667-21.0176 8.8064-30.941867l-57.386666-8.1152c-21.248 48.896-38.3232 100.155733-53.930667 151.227734-4.6592-0.0768-9.3696 0.503467-14.0288-0.349867l-1.877333-2.833067z m12.7232-353.041067v47.709867c13.115733-5.8368 27.1104-7.296 41.344-6.365867-8.6528-13.892267-20.9408-27.579733-22.263467-44.526933l-19.080533 3.191467z" fill="#4D2B23" p-id="2448"></path><path d="M412.986027 725.0432l38.161066 6.365867c-0.861867 5.819733-2.773333 9.608533-3.1744 15.8976-0.733867 11.477333 0.3584 23.330133 0.1536 34.833066 12.578133 6.442667 33.1776-3.140267 44.288-11.0592 10.299733-7.338667 13.405867-17.501867 20.7616-26.948266 0.5632-0.264533 3.985067 5.0176 4.770134 6.357333 4.394667 7.5264 5.4784 11.255467 12.868266 17.348267 11.025067 9.096533 35.362133 22.417067 47.684267 12.637866l-3.293867-49.066666c21.051733-0.238933 47.0528-4.906667 66.7904-12.7232 4.360533 18.901333 11.067733 37.376 15.172267 56.388266 5.632 26.094933 12.023467 62.216533 13.5936 88.183467 1.041067 17.314133-1.041067 35.268267-0.136533 52.616533-105.079467 0.093867-212.1984 0.110933-318.0544 0 0.768-14.165333-1.015467-28.970667-0.136534-43.076266 2.090667-33.595733 9.787733-67.0976 13.525334-100.9664l15.232-53.1456c7.534933 3.037867 23.415467 5.563733 31.803733 6.357333z" fill="#F9F0DE" p-id="2449"></path><path d="M174.445227 540.578133c-8.704-2.1504-7.645867 5.845333-6.161067 10.9312 1.979733 6.775467 14.370133 2.116267 15.7952 12.8256 1.058133 7.936 0.887467 26.965333-0.145067 35.029334-1.032533 8.0384-16.068267 30.1312-4.701866 33.442133 4.087467 1.194667 9.053867-6.570667 13.149866-9.105067 34.2016-21.154133 86.8864 3.882667 114.116267 28.1344 7.918933 7.057067 11.076267 16.4096 17.3824 23.9616 11.153067 13.3632 41.412267 36.471467 57.309867 42.88l-15.232 53.1456c-3.7376 33.8688-11.434667 67.370667-13.525334 100.9664-0.878933 14.1056 0.913067 28.910933 0.136534 43.076267-56.1408-0.059733-112.418133 0.0512-168.567467 0-1.783467-5.922133 3.054933-6.024533 3.1744-6.357333l1.877333 2.833066c4.6592 0.8448 9.3696 0.273067 14.0288 0.349867 28.509867 0.452267 57.361067 0.366933 85.870934 0 5.282133-0.068267 10.624 0.0512 15.906133 0l6.468267-58.734933 28.373333-123.989334c-19.447467-18.850133-15.547733 21.077333-23.918933 23.483734-5.777067 1.655467-37.981867-5.051733-46.7712-6.8864-42.717867-8.891733-117.12-33.783467-145.501867-67.592534-42.564267-50.688-21.998933-147.959467 25.4976-189.294933-1.9968 12.9536 3.4304 33.646933 12.5952 43.0592 1.595733 1.646933 11.912533 7.637333 12.8512 7.825067zM877.344427 492.868267c43.2128 44.586667 65.2032 134.075733 22.3232 186.120533-24.644267 29.909333-80.861867 50.2016-117.649067 60.458667-10.3424 2.884267-72.5504 17.877333-76.270933 14.08l-6.587734-25.233067-15.7952 4.881067c11.0336 38.664533 21.640533 77.9264 28.484267 117.623466 3.703467 21.486933 4.138667 43.9552 9.6512 65.092267-16.9216 0.017067-33.962667-0.017067-50.884267 0-0.904533-17.348267 1.186133-35.3024 0.136534-52.616533-1.5616-25.966933-7.9616-62.08-13.5936-88.183467-4.104533-19.012267-10.811733-37.486933-15.172267-56.388267 21.546667-8.533333 45.320533-28.7232 60.484267-46.062933 5.1712-5.905067 8.490667-15.453867 14.1312-20.855467 6.6048-6.331733 47.0528-31.650133 55.7824-34.858666 1.570133-0.571733 4.522667 0.503467 6.357333 0l10.794667-0.349867 1.928533-2.833067c4.0192-0.273067 8.695467-0.273067 12.7232 0l1.928533 2.833067 10.794667 0.349867c10.7776 4.992 20.010667 14.0544 31.803733 12.714666 0.546133-10.845867-8.1408-19.7376-9.480533-30.267733-0.9216-7.227733-0.9472-39.074133 3.5072-42.513067 1.28-0.989867 4.7872-0.034133 6.843733-0.964266 9.949867-4.5056 13.098667-14.114133-0.861866-15.3088 0.512-0.1536 8.968533-4.266667 9.608533-4.693334 8.413867-5.632 16.401067-32.657067 19.012267-43.016533z" fill="#F6C17D" p-id="2450"></path><path d="M734.214827 915.874133c2.133333-6.3232 0.913067-17.348267 0.145066-24.004266-4.317867-37.614933-15.957333-74.504533-21.76-111.8208-0.554667-3.5328-1.015467-6.920533-0.6656-10.478934l57.224534-9.531733 57.284266 155.835733c-30.626133 0.785067-61.585067-0.034133-92.2368 0z" fill="#E23B36" p-id="2451"></path><path d="M966.398293 562.8416c10.410667-2.824533 16.034133 9.813333 18.5088 18.056533 8.507733 28.305067 2.158933 69.393067-11.537066 95.4624-3.976533 7.560533-18.116267 32.187733-27.639467 29.5936-12.970667-3.5328 5.230933-20.352 7.509333-24.277333 16.093867-27.767467 23.739733-56.081067 19.464534-88.567467-1.271467-9.6512-9.1648-19.063467-6.306134-30.2592z" fill="#4F2D26" p-id="2452"></path><path d="M82.208427 705.962667c-13.678933 2.858667-18.781867-7.790933-24.942934-17.988267-8.482133-14.037333-16.768-34.312533-19.515733-50.4576-3.037867-17.877333-2.116267-48.136533 4.5824-65.2544 2.039467-5.205333 5.572267-8.968533 9.659733-12.586667l7.3216 7.850667c-17.7152 40.209067-8.584533 83.729067 15.069867 119.227733 4.334933 6.5024 10.606933 7.978667 7.816533 19.208534z" fill="#4B2B23" p-id="2453"></path><path d="M15.418027 643.9424c0.554667 3.165867 6.9888 18.7136 8.917333 22.8864 4.642133 10.043733 12.202667 17.8944 16.529067 27.9808-6.1184 8.260267-12.458667 5.290667-17.425067-1.6384C2.438827 663.876267-7.033173 619.2896 5.87776 585.105067l9.540267 1.5872c5.8368 3.84 0 5.333333 0 6.365866 0 14.4128-2.235733 38.1184 0 50.884267z" fill="#513128" p-id="2454"></path><path d="M241.235627 467.421867l-18.722134-14.6688c-2.184533-7.432533 7.790933-42.069333 10.683734-52.206934 5.7088-20.0448 22.254933-53.589333 23.9616-71.594666 0.699733-7.389867-2.8416-10.9824-3.140267-15.837867-2.5344-41.147733 7.492267-119.236267 23.748267-157.422933 13.3376-31.342933 26.692267-38.510933 58.9568-23.876267 20.770133 9.4208 47.402667 28.330667 65.194666 42.939733 4.283733 3.515733 10.530133 12.5952 14.173867 14.455467 10.504533 5.367467 28.535467-3.285333 39.9104-4.778667 35.0208-4.599467 73.019733-4.283733 108.0064 0 11.178667 1.365333 30.7968 8.832 40.968533 5.8368 7.483733-2.2016 28.296533-23.236267 37.162667-29.610666 14.865067-10.7008 54.3488-36.864 71.415467-36.957867 28.9536-0.170667 43.963733 56.311467 48.571733 78.8992 9.4976 46.557867 1.6896 86.980267 7.150933 129.6128 1.826133 14.2592 15.675733 39.953067 20.693334 55.637333 3.054933 9.540267 18.295467 62.472533 14.045866 66.670934l-22.075733 9.736533c-9.472-1.373867-17.544533-8.2688-27.0848-9.489067-40.4224-5.162667-62.7712 13.0048-96.955733 25.3952-7.560533 2.7392-17.365333 1.646933-22.263467 6.357334-45.764267 6.1952-66.6112-40.6016-109.5936-44.654934-8.379733-0.7936-23.1168-0.6656-31.325867 0.733867-41.079467 7.0144-57.5488 52.1728-107.153066 43.921067-1.6128-0.264533-15.419733-4.983467-19.080534-6.357334-17.4848-6.562133-34.9696-19.771733-54.0672-22.263466-2.013867-0.264533-4.266667 0.119467-6.357333 0l-1.877333-2.833067c-11.886933-0.0512-25.019733-1.962667-36.292267 1.1776v1.655467c-9.2928 0.810667-17.297067 2.7648-24.337067 9.070933l-4.283733 0.469333z m50.8928-249.668267c-1.9712 16.315733 1.4336 35.754667 0 52.48 5.469867 1.3056 6.3232-2.090667 9.540266-4.770133 7.253333-6.033067 13.431467-14.711467 20.608-20.736 13.934933-11.690667 31.2064-20.514133 45.218134-31.189334 1.9712-1.501867 5.2224 1.4848 4.224-5.341866-0.776533-5.290667-21.6832-26.0352-27.050667-30.250667-36.795733-28.936533-45.021867 3.208533-49.962667 36.036267-0.290133 1.954133-2.4832 3.0208-2.577066 3.780266z m442.0864 50.8928c2.269867-8.4992 0-36.317867 0-47.709867 0-0.631467-2.286933-1.8176-2.577067-3.780266-1.834667-12.305067-6.4-36.616533-14.848-45.576534-13.713067-14.532267-37.111467 9.693867-48.708267 16.622934l-16.5632 23.1936c15.402667 9.608533 32.221867 18.338133 46.190934 30.1568 10.478933 8.866133 19.6864 21.111467 30.1568 30.2848 1.6128 3.114667 6.135467-2.346667 6.357333-3.191467zM395.89376 311.978667c-5.495467 1.604267-14.08 14.353067-14.779733 20.3008-4.872533 41.668267 83.080533 59.374933 76.398933 9.514666-1.698133-12.654933-21.102933-28.509867-33.399467-30.208-5.623467-0.776533-23.424-1.006933-28.219733 0.392534z m203.776 0.2304c-21.495467 3.771733-42.350933 28.151467-27.793067 48.802133 19.319467 27.400533 80.5376 2.4064 69.700267-34.7136-0.520533-1.792-10.5216-12.322133-12.2368-13.201067-5.649067-2.884267-22.656-2.116267-29.6704-0.887466z m-210.013867 73.045333c-34.039467 7.492267-47.445333 58.871467-17.928533 80.494933 14.830933 10.862933 35.712 13.508267 51.968 4.437334 30.190933-16.861867 28.962133-65.442133-1.3056-80.5376-9.557333-4.7616-22.229333-6.698667-32.733867-4.386134z m279.662934 44.893867c0-25.1648-20.394667-45.559467-45.559467-45.559467s-45.559467 20.394667-45.559467 45.559467 20.394667 45.559467 45.559467 45.559466 45.559467-20.394667 45.559467-45.559466z" fill="#F7C27E" p-id="2455"></path><path d="M635.620693 486.510933c11.434667-1.3056 4.4032 3.8656 3.84 8.610134-0.810667 6.801067-4.266667 26.837333-3.950933 30.984533 0.273067 3.6096 3.447467 17.160533 4.718933 20.992 2.269867 6.8608 22.357333 30.122667 28.7232 34.884267 6.6816 5.000533 30.276267 13.294933 38.0928 12.782933 12.5184-0.8192 51.217067-16.145067 62.071467-24.055467 10.0608-7.330133 14.506667-17.5616 12.8-30.1312 1.7408 1.988267 7.765333 3.729067 8.96 7.867734-2.747733 10.632533-8.4992 17.988267-13.9008 27.0848-1.322667 2.2272-0.8704 5.5552-1.425067 6.391466-28.484267 43.178667-108.731733 79.9744-158.097066 91.5712-51.652267 12.1344-95.138133 9.2416-147.234134 10.205867-2.116267 0.042667-4.2496-0.110933-6.357333 0l-1.8688-2.833067c-5.632-1.314133-11.648 0.401067-17.220267-0.349866-17.1008-2.286933-41.130667-8.584533-58.069333-13.4912-62.9248-18.244267-131.669333-56.994133-154.4192-121.856-0.110933-1.288533 2.3296-1.066667 2.568533-1.416534 10.487467 5.111467 23.210667 43.332267 33.262934 43.7504 1.774933 0.0768 5.239467-2.7904 9.5232-2.542933 8.4736 0.494933 20.9152 8.772267 31.8208 9.8048 16.145067 1.527467 18.4576-3.5584 29.252266-5.9904 8.942933-2.013867 13.7728 1.1264 23.278934-5.3504 25.403733-17.3056 32.597333-50.423467 28.706133-79.428267-0.7936-5.930667-9.992533-13.8496-3.1744-17.493333 49.6128 8.251733 66.0736-36.906667 107.153067-43.921067 8.209067-1.399467 22.946133-1.527467 31.325866-0.733866 42.990933 4.053333 63.829333 50.850133 109.5936 44.654933zM497.88416 458.496c-30.464 5.162667-37.717333 29.994667-11.665067 48.605867 20.599467 14.711467 50.670933 9.873067 65.032534-11.136 20.8896-30.5664-30.1824-41.3952-53.367467-37.461334z m6.272 69.888c-20.48 4.539733-43.528533 58.2656-10.0608 63.0784 7.441067 1.066667 41.1904 1.032533 46.190933-1.5104 15.991467-8.123733 9.378133-28.544 2.602667-40.925867-8.7808-16.0512-19.1232-24.994133-38.7328-20.642133z" fill="#FAF0DE" p-id="2456"></path><path d="M788.29056 588.288c-1.416533 1.9456-6.954667 9.053867-6.357333 9.531733l28.629333 1.536v1.655467c-9.3184 0.170667-25.216-1.7152-32.9984 0.401067-4.3264 1.1776-13.5168 11.861333-5.1712 15.505066-8.7296 3.208533-49.1776 28.535467-55.7824 34.858667-5.640533 5.4016-8.96 14.9504-14.1312 20.855467-15.172267 17.339733-38.946133 37.5296-60.484267 46.062933-19.729067 7.816533-45.738667 12.484267-66.7904 12.7232l3.293867 49.066667c-12.322133 9.7792-36.6592-3.549867-47.684267-12.637867-7.389867-6.0928-8.4736-9.821867-12.868266-17.348267l10.794666-0.349866 1.928534-2.833067c2.781867 3.421867 15.726933 13.986133 20.0192 16.554667 5.521067 3.293867 11.093333 7.722667 14.933333 0.955733-5.597867-6.843733-2.312533-16.2304-3.7632-24.849067-1.297067-7.68-10.7264-26.2912-17.3312-30.370133-10.436267-6.4512-7.3216-2.850133-7.5008 5.905067-10.624-9.053867 6.912-17.834667 6.357333-28.6208h-60.433066c3.421867 5.3504 1.425067 7.04-2.8672 11.127466-0.128 2.372267 12.501333 6.903467 8.9344 18.850134-0.512 1.723733-2.696533 1.544533-2.884267 1.8176v-7.936l-3.182933-1.604267-1.5872-3.165867-1.595734 1.570134-3.165866 3.191466 3.165866 1.5872c-7.3472 7.8592-17.527467 25.3952-19.080533 34.986667l-1.7664-3.089067c-4.130133-0.9472-7.552 0.989867-10.9568 3.089067 0.401067-6.289067 2.321067-10.077867 3.1744-15.8976l-38.161067-6.365867-9.540266-7.953066 6.357333-4.770134c9.335467 2.466133 40.721067 8.448 47.786667 4.846934 2.756267-1.399467 18.6368-17.706667 15.812266-20.753067l-30.3872 0.0512c-3.831467-0.4608-4.309333-3.191467-4.590933-3.234133h6.3744c-2.773333-5.034667-3.8144-7.927467-0.008533-12.7232 5.572267 0.7424 11.588267-0.964267 17.220266 0.349866l1.8688 2.833067c-3.157333 0.162133-6.382933-0.119467-9.540266 0v3.165867l15.8976-3.1744c52.096-0.964267 95.581867 1.928533 147.234133-10.205867 49.365333-11.5968 129.6128-48.392533 158.097067-91.5712l3.114666 4.8896 9.608534 1.467733zM686.513493 667.8016l-65.937066 21.521067c-12.305067 0.955733-25.557333 5.504-37.495467 7.031466-10.052267 1.288533-25.5744-4.488533-30.1568 6.417067 8.302933-1.954133 6.877867 8.2432 12.6464 11.229867 44.040533 7.406933 91.8272-13.448533 120.942933-46.199467z" fill="#522F28" p-id="2457"></path><path d="M203.07456 912.699733c15.598933-51.072 32.682667-102.331733 53.930667-151.227733l57.386666 8.1152c-3.515733 9.924267-6.528 20.642133-8.8064 30.941867-5.973333 26.973867-9.856 54.7584-13.508266 81.902933-1.288533 9.6-5.316267 19.217067-3.1232 30.267733-28.5184 0.366933-57.361067 0.452267-85.870934 0z" fill="#E23C36" p-id="2458"></path><path d="M269.86496 457.8816c11.229867-0.981333 26.734933-0.64 38.1696 0 2.090667 0.119467 4.343467-0.264533 6.357333 0-4.078933 10.3168-17.3312 5.4272-26.4192 6.971733-15.044267 2.56-32.631467 16.682667-30.830933 32.6912 1.134933 10.129067 3.165867 16.494933-0.4864 28.219734-1.527467 4.898133-8.516267 6.2976-5.5552 16.059733 0.298667 0.981333 10.5984 14.370133 12.347733 16.298667 19.003733 20.983467 30.583467 12.740267 55.645867 14.327466 3.165867 0.196267 6.4256 3.387733 9.1904 2.7648 2.1504-0.477867 4.343467-4.155733 7.432533-5.393066 8.567467-3.421867 17.3824-3.080533 23.338667-11.630934 10.786133-15.488 14.9504-35.473067 12.544-54.144-0.904533-7.022933-10.4704-18.542933-3.1232-23.9104 3.6608 1.373867 17.467733 6.0928 19.080533 6.357334-6.818133 3.643733 2.3808 11.5712 3.1744 17.493333 3.882667 29.0048-3.3024 62.114133-28.706133 79.428267-9.506133 6.4768-14.336 3.336533-23.278933 5.3504-10.794667 2.432-13.1072 7.517867-29.252267 5.9904-10.897067-1.032533-23.338667-9.309867-31.8208-9.8048-4.283733-0.247467-7.748267 2.6112-9.5232 2.542933-10.052267-0.418133-22.775467-38.638933-33.262933-43.7504 7.978667-11.502933 17.006933-17.4848 19.0208-33.4336 2.218667-17.527467-6.3744-27.9808-12.663467-42.897067l4.283733-0.469333c7.04-6.306133 15.044267-8.260267 24.337067-9.070933z" fill="#FAE2CB" p-id="2459"></path><path d="M877.344427 492.868267c-2.6112 10.359467-10.5984 37.384533-19.012267 43.016533-0.64 0.426667-9.096533 4.539733-9.608533 4.693333-9.028267 2.670933-23.569067 1.826133-32.708267-0.682666-25.557333-7.0144-40.8064-27.4688-29.2608-53.333334 14.6432-32.785067 63.837867-18.670933 85.9904-0.110933 2.577067 2.158933 3.268267 5.0432 4.608 6.4256z" fill="#F8F0DF" p-id="2460"></path><path d="M174.445227 540.578133c-0.938667-0.187733-11.255467-6.186667-12.8512-7.825066-9.156267-9.412267-14.583467-30.1056-12.5952-43.0592 11.016533-9.582933 24.0896-20.138667 39.808-22.212267 44.330667-5.8368 67.805867 40.4736 33.262933 65.066667-11.835733 8.4224-33.672533 10.820267-47.624533 8.029866z" fill="#F9F0E0" p-id="2461"></path><path d="M781.924693 464.247467c-15.9744 23.586133-20.753067 40.874667-6.357333 66.7904-8.686933 5.495467-10.555733 21.922133-16.5632 27.9552-1.1008 1.1008-16.725333 11.4688-18.2528 11.963733-3.319467 1.058133-21.1968 4.522667-24.0128 4.522667s-5.2736-2.449067-6.9376-2.414934c-3.626667 0.0768-6.272 2.414933-8.977067 2.414934-13.7728-0.017067-41.838933-20.445867-45.661866-33.7664-2.1248-7.406933 1.493333-17.109333-2.389334-24.994134l5.12-36.573866c34.184533-12.3904 56.533333-30.557867 96.955734-25.3952 9.540267 1.220267 17.621333 8.1152 27.0848 9.489066z m-41.924266 13.303466c-5.802667-5.597867-30.1568-11.5456-38.673067-9.6-7.082667 1.6128-28.4672 18.577067-32.290133 24.942934-15.701333 26.1888 5.9904 71.867733 38.212266 70.144 5.051733-0.273067 8.516267-2.722133 12.6976-3.319467 8.3968-1.194667 22.4-0.145067 29.576534-7.005867 0.7424-0.708267 9.233067-15.8208 9.6-17.408 2.056533-9.002667-3.7376-30.165333-7.304534-39.3728-0.733867-1.8944-10.897067-17.467733-11.835733-18.372266z" fill="#F8D7BD" p-id="2462"></path><path d="M657.88416 480.145067l-5.12 36.573866c3.882667 7.876267 0.264533 17.5872 2.389333 24.994134 3.822933 13.320533 31.889067 33.7408 45.661867 33.7664 2.705067 0 5.3504-2.338133 8.977067-2.414934 1.664-0.034133 4.2496 2.423467 6.9376 2.414934s20.693333-3.464533 24.0128-4.522667c1.527467-0.4864 17.152-10.8544 18.2528-11.963733 6.007467-6.033067 7.876267-22.459733 16.5632-27.9552 1.595733 2.875733 4.309333 7.1936 6.357333 9.540266 1.706667 12.578133-2.7392 22.801067-12.8 30.1312-10.8544 7.9104-49.5616 23.236267-62.071467 24.055467-7.816533 0.512-31.4112-7.7824-38.0928-12.782933-6.365867-4.770133-26.453333-28.023467-28.7232-34.884267-1.271467-3.831467-4.445867-17.3824-4.718933-20.992-0.315733-4.155733 3.140267-24.183467 3.950933-30.984533 0.5632-4.744533 7.594667-9.915733-3.84-8.610134 4.898133-4.718933 14.702933-3.618133 22.263467-6.357333z" fill="#FAE0C8" p-id="2463"></path><path d="M438.432427 693.239467c0.2816 0.042667 0.759467 2.773333 4.590933 3.234133l30.3872-0.0512c2.816 3.0464-13.064533 19.3536-15.812267 20.753067-7.074133 3.601067-38.4512-2.3808-47.786666-4.846934-23.6288-6.2464-57.514667-25.941333-73.147734-44.5184l69.111467 21.521067c10.7008 3.217067 22.459733 2.500267 32.6656 3.9168z" fill="#DD3A34" p-id="2464"></path><path d="M199.891627 556.475733l19.080533-3.191466c1.322667 16.9472 13.610667 30.634667 22.263467 44.526933-14.2336-0.930133-28.2368 0.5376-41.344 6.365867v-47.709867z" fill="#ECE8E1" p-id="2465"></path><path d="M788.29056 588.288c7.773867-10.7008 16.580267-21.3504 19.1232-35.003733l19.003733 8.132266-3.140266 39.6032c-4.224 0.0512-8.4992-0.085333-12.731734 0v-1.655466l-28.6208-1.536c-0.5888-0.4864 4.949333-7.586133 6.357334-9.531734z" fill="#E9E6DC" p-id="2466"></path><path d="M791.46496 613.725867l-1.928533 2.833066-10.794667 0.349867c0.162133-0.042667-0.827733-2.3552 1.928533-2.833067 3.5584-0.955733 7.2448-0.1024 10.794667-0.349866zM816.91136 616.9088l-10.794667-0.349867-1.928533-2.833066c7.850667 0.529067 6.8608 0.469333 12.7232 3.182933z" fill="#522F28" p-id="2467"></path><path d="M486.142293 718.685867c0.187733-0.273067 2.372267-0.1024 2.884267-1.8176 3.566933-11.946667-9.070933-16.477867-8.9344-18.850134 4.292267-4.096 6.289067-5.777067 2.8672-11.127466h60.433067c0.554667 10.794667-16.981333 19.575467-6.357334 28.6208 10.222933 8.712533 14.6688 13.303467 12.714667 28.6208-8.925867 2.9184-14.301867-15.803733-17.493333-15.880534-6.929067 4.497067-6.075733 13.550933-1.5872 19.072l-1.928534 2.833067-10.794666 0.349867c-0.785067-1.339733-4.206933-6.621867-4.770134-6.357334-7.3472 9.4464-10.461867 19.6096-20.7616 26.948267-11.1104 7.918933-31.709867 17.493333-44.288 11.0592 0.2048-11.502933-0.887467-23.355733-0.1536-34.833067 3.4048-2.090667 6.826667-4.027733 10.9568-3.089066l1.7664 3.089066c-1.083733 6.6816 0.759467 15.223467 0 22.263467 16.682667-2.8672 30.856533-12.168533 36.727467-28.4672 2.3552-6.528 2.321067-8.533333-3.336533-12.868267-8.004267 6.613333-6.365867 21.9136-20.667734 19.063467-1.314133-12.032 6.775467-19.933867 12.714667-28.6208z m17.646934-18.926934c-2.952533 0.836267-3.771733 2.7648-3.413334 6.135467 0.8448 7.893333 3.4048 18.005333 12.5952 19.063467 18.5344-11.588267 14.097067-31.7696-9.181866-25.1904z" fill="#4D2B23" p-id="2468"></path><path d="M389.655893 385.2544c10.504533-2.312533 23.185067-0.375467 32.733867 4.386133 30.267733 15.095467 31.496533 63.675733 1.3056 80.5376-16.256 9.079467-37.137067 6.4256-51.968-4.437333-29.5168-21.623467-16.110933-73.002667 17.928533-80.494933z m25.250134 12.5184c-23.099733 6.997333 6.9632 46.455467 20.104533 14.4128l-9.207467-13.2352c-3.140267-2.0992-7.381333-2.244267-10.897066-1.1776z" fill="#523129" p-id="2469"></path><path d="M669.318827 430.148267c0 25.1648-20.394667 45.559467-45.559467 45.559466s-45.559467-20.394667-45.559467-45.559466 20.394667-45.559467 45.559467-45.559467 45.559467 20.394667 45.559467 45.559467z m-51.805867-18.824534c0-7.569067-6.135467-13.704533-13.704533-13.704533s-13.704533 6.135467-13.704534 13.704533 6.135467 13.704533 13.704534 13.704534 13.704533-6.135467 13.704533-13.704534z" fill="#513028" p-id="2470"></path><path d="M368.459093 480.145067c-7.3472 5.367467 2.218667 16.887467 3.1232 23.9104 2.4064 18.670933-1.757867 38.647467-12.544 54.144-5.956267 8.5504-14.7712 8.209067-23.338666 11.630933-3.089067 1.237333-5.282133 4.9152-7.432534 5.393067-2.7648 0.6144-6.024533-2.568533-9.1904-2.7648-25.0624-1.578667-36.642133 6.664533-55.645866-14.327467-1.749333-1.928533-12.049067-15.317333-12.347734-16.298667-2.961067-9.770667 4.027733-11.1616 5.5552-16.059733 3.652267-11.7248 1.629867-18.0992 0.4864-28.219733-1.800533-16 15.786667-30.1312 30.830934-32.6912 9.088-1.544533 22.340267 3.336533 26.4192-6.971734 19.0976 2.491733 36.5824 15.701333 54.0672 22.263467z m-34.3552 73.984c1.348267-1.5616 6.8864-3.2256 10.5984-7.099734 2.176-2.2784 10.018133-12.808533 10.589867-14.848 2.321067-8.311467 2.449067-28.014933-1.194667-36.087466-10.427733-23.133867-38.229333-24.661333-59.8016-18.551467-23.0144 6.519467-34.3808 46.907733-22.818133 66.193067 1.134933 1.8944 12.672 13.585067 14.2336 14.3872 14.088533 7.261867 30.600533-0.8192 45.986133 1.698133 2.850133-0.426667 1.1264-4.215467 2.4064-5.691733z" fill="#F9D6BC" p-id="2471"></path><path d="M734.214827 268.6464c-0.221867 0.8448-4.744533 6.2976-6.357334 3.191467-10.461867-9.173333-19.677867-21.410133-30.1568-30.2848-13.969067-11.8272-30.779733-20.548267-46.190933-30.1568l16.5632-23.1936c11.5968-6.929067 34.986667-31.1552 48.708267-16.622934 8.456533 8.96 13.013333 33.271467 14.848 45.576534 0.290133 1.962667 2.577067 3.1488 2.577066 3.780266 0 11.392 2.269867 39.202133 0 47.709867z" fill="#F9C6B7" p-id="2472"></path><path d="M292.128427 217.7536c0.093867-0.759467 2.286933-1.826133 2.577066-3.780267 4.9408-32.8192 13.166933-64.9728 49.962667-36.036266 5.367467 4.224 26.282667 24.968533 27.050667 30.250666 0.9984 6.826667-2.244267 3.84-4.224 5.341867-14.011733 10.683733-31.291733 19.498667-45.218134 31.189333-7.185067 6.024533-13.354667 14.6944-20.608 20.736-3.217067 2.679467-4.078933 6.075733-9.540266 4.770134 1.4336-16.725333-1.9712-36.164267 0-52.48z" fill="#F9C7B8" p-id="2473"></path><path d="M395.89376 311.978667c4.795733-1.399467 22.596267-1.1776 28.219733-0.392534 12.305067 1.706667 31.709867 17.5616 33.399467 30.208 6.673067 49.8688-81.28 32.162133-76.398933-9.514666 0.699733-5.956267 9.275733-18.696533 14.779733-20.3008z" fill="#F8EFDC" p-id="2474"></path><path d="M599.66976 312.209067c7.0144-1.2288 24.021333-2.005333 29.6704 0.887466 1.7152 0.878933 11.716267 11.409067 12.2368 13.201067 10.837333 37.128533-50.3808 62.114133-69.700267 34.7136-14.557867-20.650667 6.2976-45.0304 27.793067-48.802133z" fill="#F8EEDD" p-id="2475"></path><path d="M308.026027 457.8816c-11.434667-0.64-26.9312-0.981333-38.1696 0v-1.655467c11.272533-3.140267 24.405333-1.2288 36.292266-1.1776l1.877334 2.833067z" fill="#F9D6BC" p-id="2476"></path><path d="M497.88416 458.496c23.185067-3.933867 74.248533 6.894933 53.367467 37.461333-14.353067 21.009067-44.433067 25.847467-65.032534 11.136-26.052267-18.602667-18.798933-43.434667 11.665067-48.605866z" fill="#53322A" p-id="2477"></path><path d="M504.15616 528.384c19.6096-4.352 29.960533 4.590933 38.7328 20.642133 6.766933 12.381867 13.3888 32.802133-2.602667 40.925867-5.000533 2.542933-38.749867 2.577067-46.190933 1.5104-33.467733-4.8128-10.4192-58.538667 10.0608-63.0784z m-11.665067 47.1808c10.965333-0.682667 22.5792 0.930133 33.476267 0.068267 5.154133-0.4096 7.688533 0.196267 11.025067-4.829867-5.12-12.151467-10.1632-25.284267-23.816534-30.421333-13.7984 6.144-23.1936 19.797333-20.676266 35.1744z" fill="#523028" p-id="2478"></path><path d="M463.878827 683.6992c2.107733-0.110933 4.2496 0.042667 6.357333 0l-15.8976 3.1744v-3.165867c3.157333-0.119467 6.382933 0.1536 9.540267 0z" fill="#4D2B23" p-id="2479"></path><path d="M686.513493 667.8016c-29.115733 32.759467-76.9024 53.614933-120.942933 46.199467-5.76-2.986667-4.343467-13.184-12.6464-11.229867 4.5824-10.9056 20.104533-5.137067 30.1568-6.417067 11.946667-1.527467 25.198933-6.075733 37.495467-7.031466l65.937066-21.521067z" fill="#E03B34" p-id="2480"></path><path d="M530.669227 747.306667c-4.48-5.521067-5.333333-14.574933 1.5872-19.072 3.182933 0.0768 8.558933 18.807467 17.493333 15.880533 1.954133-15.317333-2.491733-19.908267-12.714667-28.6208 0.170667-8.7552-2.944-12.356267 7.5008-5.905067 6.6048 4.078933 16.034133 22.690133 17.3312 30.370134 1.450667 8.618667-1.826133 18.005333 3.7632 24.849066-3.84 6.766933-9.412267 2.346667-14.933333-0.955733-4.292267-2.56-17.245867-13.1328-20.0192-16.554667z" fill="#DA3A31" p-id="2481"></path><path d="M486.142293 718.685867c-5.9392 8.686933-14.037333 16.597333-12.714666 28.6208 14.301867 2.850133 12.663467-12.450133 20.667733-19.063467 5.6576 4.334933 5.691733 6.340267 3.336533 12.868267-5.870933 16.298667-20.0448 25.591467-36.727466 28.4672 0.759467-7.04-1.092267-15.573333 0-22.263467 1.5616-9.591467 11.741867-27.127467 19.080533-34.986667 0.503467-0.546133 3.8656-0.136533 3.182933-3.182933l3.1744 1.604267v7.936z" fill="#DD3B36" p-id="2482"></path><path d="M482.95936 709.1456c0.6912 3.0464-2.670933 2.6368-3.182933 3.182933l-3.165867-1.5872 3.165867-3.191466 1.595733-1.570134 1.5872 3.165867z" fill="#4D2B23" p-id="2483"></path><path d="M740.000427 477.550933c0.938667 0.904533 11.093333 16.477867 11.835733 18.372267 3.566933 9.207467 9.361067 30.370133 7.304533 39.3728-0.366933 1.5872-8.8576 16.699733-9.6 17.408-7.176533 6.8608-21.179733 5.8112-29.576533 7.005867-4.189867 0.597333-7.6544 3.054933-12.6976 3.319466-32.221867 1.723733-53.9136-43.9552-38.212267-70.144 3.8144-6.365867 25.207467-23.330133 32.290134-24.942933 8.516267-1.9456 32.8704 4.002133 38.673066 9.6z m-32.3072 6.212267c-9.557333 2.133333-23.1168 18.090667-27.1872 27.144533-0.674133 3.618133 5.333333 19.4048 7.6288 23.278934 6.980267 11.810133 28.125867 13.7728 40.925866 12.347733 4.736-1.365333 13.2864-16.034133 14.3104-20.8128 3.968-18.4832-15.914667-46.378667-35.669333-41.966933z" fill="#F9CBAE" p-id="2484"></path><path d="M503.789227 699.758933c23.278933-6.570667 27.716267 13.602133 9.181866 25.1904-9.1904-1.058133-11.7504-11.1616-12.5952-19.063466-0.3584-3.362133 0.4608-5.2992 3.413334-6.135467z" fill="#D23634" p-id="2485"></path><path d="M414.906027 397.7728c3.515733-1.066667 7.7568-0.9216 10.897066 1.1776l9.207467 13.2352c-13.141333 32.042667-43.195733-7.415467-20.104533-14.4128z" fill="#EAE8E5" p-id="2486"></path><path d="M603.808427 411.323733m-13.704534 0a13.704533 13.704533 0 1 0 27.409067 0 13.704533 13.704533 0 1 0-27.409067 0Z" fill="#EFECE6" p-id="2487"></path><path d="M334.103893 554.129067c-1.28 1.476267 0.443733 5.265067-2.4064 5.691733-15.3856-2.517333-31.8976 5.563733-45.986133-1.698133-1.5616-0.802133-13.098667-12.4928-14.2336-14.3872-11.562667-19.285333-0.196267-59.6736 22.818133-66.193067 21.5808-6.109867 49.373867-4.5824 59.8016 18.551467 3.643733 8.072533 3.515733 27.776 1.194667 36.087466-0.571733 2.039467-8.413867 12.5696-10.589867 14.848-3.712 3.874133-9.250133 5.538133-10.5984 7.099734z m-1.2288-17.322667c6.7072-7.005867 8.106667-32 0.648534-39.2192-14.446933-13.986133-35.601067-7.313067-46.08 8.0896-12.245333 17.988267 0.349867 35.771733 18.952533 41.2928 4.5312-0.0768 23.458133-7.005867 26.487467-10.1632z" fill="#FAC7AB" p-id="2488"></path><path d="M492.491093 575.5648c-2.5088-15.377067 6.877867-29.0304 20.676267-35.1744 13.653333 5.137067 18.696533 18.269867 23.816533 30.421333-3.336533 5.026133-5.870933 4.420267-11.025066 4.829867-10.888533 0.861867-22.510933-0.759467-33.476267-0.068267z" fill="#F38273" p-id="2489"></path><path d="M707.693227 483.7632c19.754667-4.411733 39.637333 23.4752 35.669333 41.966933-1.024 4.778667-9.5744 19.438933-14.3104 20.8128-12.8 1.416533-33.9456-0.5376-40.925867-12.347733-2.286933-3.874133-8.302933-19.6608-7.6288-23.278933 4.0704-9.053867 17.6384-25.0112 27.1872-27.144534z" fill="#FABB9B" p-id="2490"></path><path d="M332.875093 536.8064c-3.0208 3.157333-21.947733 10.0864-26.487466 10.1632-18.602667-5.521067-31.197867-23.304533-18.952534-41.2928 10.478933-15.402667 31.6416-22.0672 46.08-8.0896 7.458133 7.2192 6.058667 32.213333-0.648533 39.2192z" fill="#FAB999" p-id="2491"></path></svg>